<?xml version="1.0" encoding="utf-8"?>
<!-- Generator: Adobe Illustrator 27.2.0, SVG Export Plug-In . SVG Version: 6.00 Build 0)  -->
<svg version="1.1" id="Layer_1" xmlns="http://www.w3.org/2000/svg" xmlns:xlink="http://www.w3.org/1999/xlink" x="0px" y="0px"
	 viewBox="0 0 1559.8 49.1" style="enable-background:new 0 0 1559.8 49.1;" xml:space="preserve">
<style type="text/css">
	.st0{fill:#91C6C2;}
</style>
<g>
	<g>
		<path class="st0" d="M1531,5.6c0.5-1.2-0.8-3.2-1.3-4.9c-1.5,0.8-3.6,1.1-4.4,2.4c-1.8,2.6-2.7,5.8-4.5,8.5
			c-0.7,1-2.7,1.9-3.8,1.7c-5.1-1-9.8-2.8-12.7-7.8c-0.6-1.1-3.3-1-5.1-1.5c0.2,1.6-0.1,3.6,0.7,4.8c1.6,2.2,3.6,4,5.8,5.6
			c2.6,2,5.6,3.6,9.4,6c-3.6,3.6-6.3,6.6-9.3,9.3c-1.9,1.7-4.3,3.4-1.8,5.6c1,0.9,4.6,0.2,6.1-0.9c3.2-2.7,5.9-6.1,8.7-9.2
			c3.7,2.4,7,4.8,10.6,6.7c1.5,0.8,3.6,0.4,5.5,0.5c-0.1-2,0.6-4.6-0.4-5.8c-2.8-3.3-6.3-6.1-9.6-9.1
			C1526.9,13.4,1529.3,9.7,1531,5.6"/>
		<path class="st0" d="M32.5,14.9c-0.8-1-2.6-1.2-4-1.7c-0.2,1.6-1,3.6-0.4,4.7c2.3,4.1,5.2,7.9,7.9,11.8c-0.6,0.8-0.9,1.5-1.4,1.8
			c-2.6,1.9-5.5,3.6-7.8,5.8c-1.1,1-1.3,3.1-1.9,4.6c1.5,0.3,3.1,0.8,4.6,0.7c0.9,0,1.9-0.7,2.8-1.3c3.1-1.9,6.7-5.8,9.2-5.2
			c2.8,0.7,4.7,5.4,6.9,8.4c0.1,0.1,0.2,0.3,0.3,0.4c1.3,2.3,3.2,4.6,5.5,2.3c1-1,0.3-4.7-0.7-6.5c-1.9-3.3-4.7-6.2-6.8-8.9
			c3.3-3.5,6.6-6.4,9.1-9.8c1.1-1.5,0.8-4.1,1.2-6.1c-2.1,0.7-4.4,0.9-6.1,2.1c-3.2,2.4-6.1,5.3-9.5,8.3
			C38.1,22.1,35.5,18.3,32.5,14.9"/>
		<path class="st0" d="M769.3,19.7c-1.8,0.5-3.7,0.8-5.3,1.5c-1.5,0.7-2.7,1.9-4.1,2.9c1.4,1.1,2.7,3.2,4.2,3.2
			c10.4,0.5,20.9,0.6,31.4,0.7c0.7,0,2-1.5,2.1-2.4c0.1-0.9-0.7-2.5-1.5-2.9c-1.8-0.9-3.9-1.5-5.9-1.6c-6.9-0.2-13.9-0.1-20.8-0.1
			C769.3,20.7,769.3,20.2,769.3,19.7"/>
		<path class="st0" d="M326.7,24c-3.2,0.2-6.4,0.5-6.2,4c0.1,1.1,5,2.5,7.6,2.6c8.6,0.1,17.2-0.3,25.8-0.8c1.5-0.1,2.9-1.5,4.3-2.4
			c-1-1.2-1.9-3.2-3.1-3.5C350.6,23,346,22.7,340,22C336.4,22.5,331.6,23.7,326.7,24"/>
		<path class="st0" d="M516,30.6c7.3,0,14.7-0.5,21.9,0.2c3.5,0.3,4.8-0.4,5.1-3.5c0.4-3.6-2.2-3.7-4.7-3.6c-10,0.5-20,0.9-30,1.6
			c-0.8,0.1-1.8,1.9-2,3.1c-0.1,0.7,1.2,2.1,2,2.3c2.5,0.5,5.1,0.6,7.6,0.9C516,31.2,516,30.9,516,30.6"/>
		<path class="st0" d="M489.1,30.6c1-1.1,2.2-2,2.9-3.3c0.2-0.3-1.5-2.2-2.4-2.3c-10.8-1-21.5-1.8-32.3-2.4c-1.1-0.1-2.6,2-3.2,3.4
			c-0.3,0.6,1.1,2.5,2.1,2.8c2.7,0.8,5.6,1.6,8.4,1.6c8-0.2,15.9-0.9,23.8-1.4C488.6,29.5,488.9,30.1,489.1,30.6"/>
		<path class="st0" d="M567.7,22.1c-2.7,0.3-5.4,0.5-8.1,1c-2.9,0.5-5.8,1.7-4.7,5.2c0.4,1.2,4,2.5,5.7,2c9.4-2.7,18.5-2.2,27.7,0.6
			c1,0.3,2.4-1,3.6-1.6c-0.8-0.9-1.4-2.4-2.4-2.7c-7.2-1.9-14.4-3.5-21.6-5.2C567.9,21.6,567.8,21.9,567.7,22.1"/>
		<path class="st0" d="M265.6,36.5c1.8-0.4,3.3-2.4,4.9-3.6c-1.9-0.9-3.7-1.8-5.6-2.6c-0.4-0.2-1,0.2-1.5,0.2
			c-8.4,1.4-16.8,2.6-25.1-1c-1-0.4-2.6,0.8-3.9,1.3c0.6,1.2,0.9,3.2,1.8,3.6c4.7,1.8,9.6,3.1,12.9,4.1
			C255.8,37.7,260.8,37.5,265.6,36.5"/>
		<path class="st0" d="M715.2,19.8c-1.6,0.4-3,1.7-4.5,2.6c1.6,1,3.3,3,4.7,2.9c9.9-1.2,19.7-1.4,29.4,1.2c0.5,0.1,1.2,0.2,1.5-0.1
			c0.9-0.6,2.3-1.5,2.2-2.2c-0.1-1-1.2-2.6-2.1-2.7c-7.2-1.4-14.4-2.5-21.6-3.6C721.5,18.6,718.3,19,715.2,19.8"/>
		<path class="st0" d="M84,26.3c-3.7,0.4-7.5,0.5-11.2,1.2c-1.2,0.2-2.2,1.6-3.3,2.5c1.1,1,2.2,2.9,3.4,2.9c4,0.1,8-0.4,12-0.9
			c4.6-0.6,9.2-1.3,13.7-2.1c1.3-0.2,2.7-0.5,3.8-1.1c0.4-0.2,0.3-2.4-0.2-2.7c-1.2-0.7-2.7-1.1-4.1-1c-4.7,0.4-9.4,1.1-14.2,1.7
			C84.1,26.6,84.1,26.5,84,26.3"/>
		<path class="st0" d="M693.6,25c2.5-0.3,5.2-0.4,7.6-1.1c1.2-0.3,2-1.9,3.1-2.9c-1.2-0.9-2.5-2.5-3.7-2.5c-8.5,0.4-17,1-25.5,1.8
			c-1.3,0.1-2.4,1.7-3.6,2.6c1.3,0.8,2.6,2.2,4,2.2c6,0.2,12.1,0.1,18.2,0.1C693.6,25.2,693.6,25.1,693.6,25"/>
		<path class="st0" d="M619,25.3c-5.5,0.8-11.1,1.5-16.6,2.4c-1.2,0.2-2.2,1.4-3.4,2.2c1.2,1.2,2.4,3.5,3.5,3.5
			c7.6-0.4,15.2-1.2,22.8-2.2c0.8-0.1,2-2,1.9-2.9c-0.2-1-1.6-2.3-2.6-2.4c-1.8-0.3-3.7,0.2-5.5,0.3C619.1,25.9,619,25.6,619,25.3"
			/>
		<path class="st0" d="M204.9,36.9c6.1-0.8,12.2-1.4,18.3-2.4c0.9-0.1,1.8-1.4,2.1-2.3c0.1-0.4-1.1-1.8-1.9-1.9
			c-1.8-0.3-3.7-0.4-5.6-0.3c-8.3,0.3-16.7,0.6-25,1.1c-1.1,0.1-2.2,1.6-3.3,2.4c0.8,0.9,1.6,2.4,2.5,2.5c4.2,0.3,8.5,0.1,12.7,0.1
			C204.9,36.4,204.9,36.7,204.9,36.9"/>
		<path class="st0" d="M389.3,31.6c2.6,0,5.2,0.2,7.7-0.1c0.9-0.1,2-1.6,2.2-2.7c0.1-0.6-1.4-2.1-2.2-2.2
			c-5.1-0.3-10.2-0.3-15.3-0.4c-2.9-0.1-5.8,0-8.6-0.1c-2.3-0.1-5.3-1.7-5.7,2c-0.4,3.9,2.6,4,5.6,4c5.5-0.1,10.9,0,16.4,0
			C389.3,31.8,389.3,31.7,389.3,31.6"/>
		<path class="st0" d="M282.5,28.2c-1.2,0-2.4,1.3-3.6,2c0.7,1.2,1.2,2.7,2.2,3.5c1,0.7,2.6,1.1,3.9,0.9c8.6-1.2,17.1-2.5,25.7-3.9
			c0.7-0.1,1.1-1.3,1.7-2c-0.9-0.5-1.9-1.4-2.8-1.3c-6,0.4-11.9,1-17.4,1.5C288.6,28.6,285.5,28.1,282.5,28.2"/>
		<path class="st0" d="M650.5,24.8c-3.7,0.4-7.5-0.3-11.2,0c-1.5,0.1-2.9,1.7-4.3,2.7c1.3,1,2.7,2.8,4,2.7c7.3-0.3,14.6-1.2,22-1.6
			c5.4-0.3,4.7-3,3.2-6.3C659.1,23.2,654.9,24.3,650.5,24.8"/>
		<path class="st0" d="M181.1,36.7c0.9-0.1,1.5-1.8,2.2-2.7c-0.9-0.6-1.8-1.6-2.9-1.8c-1.8-0.3-3.7,0.2-5.5,0
			c-6.2-0.7-12.4-1.8-18.7-2.3c-1.3-0.1-2.8,1.6-4.2,2.5c0.7,1,1.3,2.6,2.2,2.8c5.5,1,11,1.7,15.7,2.4
			C174.4,37.3,177.8,37.2,181.1,36.7"/>
		<path class="st0" d="M128.2,29.2c-3.4-0.5-6.7-1.2-10.1-1.4c-1.7-0.1-3.4,0.6-5.1,1c1.2,1.4,2.3,4,3.6,4.2
			c8.3,1,16.6,1.5,24.9,1.9c0.8,0,1.6-1.3,2.4-2.1c-0.7-0.8-1.3-2.2-2.2-2.3c-4.5-0.8-9-1.4-13.6-2C128.2,28.7,128.2,29,128.2,29.2"
			/>
		<path class="st0" d="M431,27.5c2.2,0,4.5,0.4,6.6-0.1c1.2-0.3,2-2.1,3-3.2c-1.2-0.7-2.4-2-3.7-2c-3.2-0.1-6.4,0.5-9.6,0.5
			c-5.2,0-10.5-0.5-15.7-0.4c-1.4,0-2.7,1.2-4.1,1.8c1.2,0.8,2.3,2.3,3.6,2.4c6.6,0.6,13.2,0.9,19.8,1.3C431,27.7,431,27.6,431,27.5
			"/>
		<path class="st0" d="M836.6,30.2c1.8-0.5,3.7-0.8,5.3-1.5c1.5-0.7,2.7-1.9,4.1-2.9c-1.4-1.1-2.7-3.2-4.2-3.2
			c-10.4-0.5-20.9-0.6-31.4-0.7c-0.7,0-2,1.5-2.1,2.4c-0.1,0.9,0.7,2.5,1.5,2.9c1.8,0.9,3.9,1.5,5.9,1.6c6.9,0.2,13.9,0.1,20.8,0.1
			C836.5,29.2,836.5,29.7,836.6,30.2"/>
		<path class="st0" d="M1279.2,25.9c3.2-0.2,6.4-0.5,6.2-4c-0.1-1.1-5-2.5-7.6-2.6c-8.6-0.1-17.2,0.3-25.8,0.8
			c-1.5,0.1-2.9,1.5-4.3,2.4c1,1.2,1.9,3.2,3.1,3.5c4.5,0.9,9.1,1.2,15.1,1.9C1269.5,27.3,1274.3,26.2,1279.2,25.9"/>
		<path class="st0" d="M1089.8,19.3c-7.3,0-14.7,0.5-21.9-0.2c-3.5-0.3-4.8,0.4-5.1,3.5c-0.4,3.6,2.2,3.7,4.7,3.6
			c10-0.5,20-0.9,30-1.6c0.8-0.1,1.8-1.9,2-3.1c0.1-0.7-1.2-2.1-2-2.3c-2.5-0.5-5.1-0.6-7.6-0.9C1089.8,18.6,1089.8,19,1089.8,19.3"
			/>
		<path class="st0" d="M1116.8,19.3c-1,1.1-2.2,2-2.9,3.3c-0.2,0.3,1.5,2.2,2.4,2.3c10.8,1,21.5,1.8,32.3,2.4c1.1,0.1,2.6-2,3.2-3.4
			c0.3-0.6-1.1-2.5-2.1-2.8c-2.7-0.8-5.6-1.6-8.4-1.6c-8,0.2-15.9,0.9-23.8,1.4C1117.2,20.3,1117,19.8,1116.8,19.3"/>
		<path class="st0" d="M1038.1,27.7c2.7-0.3,5.4-0.5,8.1-1c2.9-0.5,5.8-1.7,4.7-5.2c-0.4-1.2-4-2.5-5.7-2
			c-9.4,2.7-18.5,2.2-27.7-0.6c-1-0.3-2.4,1-3.6,1.6c0.8,0.9,1.4,2.4,2.4,2.7c7.2,1.9,14.4,3.5,21.6,5.2
			C1038,28.2,1038.1,28,1038.1,27.7"/>
		<path class="st0" d="M1340.2,13.3c-1.8,0.4-3.3,2.4-4.9,3.6c1.9,0.9,3.7,1.8,5.6,2.6c0.4,0.2,1-0.2,1.5-0.2
			c8.4-1.4,16.8-2.6,25.1,1c1,0.4,2.6-0.8,3.9-1.3c-0.6-1.2-0.9-3.2-1.8-3.6c-4.7-1.8-9.6-3.1-12.9-4.1
			C1350,12.1,1345.1,12.4,1340.2,13.3"/>
		<path class="st0" d="M890.6,30c1.6-0.4,3-1.7,4.5-2.6c-1.6-1-3.3-3-4.7-2.9c-9.9,1.2-19.7,1.4-29.4-1.2c-0.5-0.1-1.2-0.2-1.5,0.1
			c-0.9,0.6-2.3,1.5-2.2,2.2c0.1,1,1.2,2.6,2.1,2.7c7.2,1.4,14.4,2.5,21.6,3.6C884.3,31.3,887.5,30.9,890.6,30"/>
		<path class="st0" d="M912.3,24.9c-2.5,0.3-5.2,0.4-7.6,1.1c-1.2,0.3-2,1.9-3.1,2.9c1.2,0.9,2.5,2.5,3.7,2.5c8.5-0.4,17-1,25.5-1.8
			c1.3-0.1,2.4-1.7,3.6-2.6c-1.3-0.8-2.6-2.2-4-2.2c-6-0.2-12.1-0.1-18.2-0.1C912.3,24.6,912.3,24.8,912.3,24.9"/>
		<path class="st0" d="M986.9,24.6c5.5-0.8,11.1-1.5,16.6-2.4c1.2-0.2,2.2-1.4,3.4-2.2c-1.2-1.2-2.4-3.5-3.5-3.5
			c-7.6,0.4-15.2,1.2-22.8,2.2c-0.8,0.1-2,2-1.9,2.9c0.2,1,1.6,2.3,2.6,2.4c1.8,0.3,3.7-0.2,5.5-0.3C986.8,24,986.8,24.3,986.9,24.6
			"/>
		<path class="st0" d="M1401,13c-6.1,0.8-12.2,1.4-18.3,2.4c-0.9,0.1-1.8,1.4-2.1,2.3c-0.1,0.4,1.1,1.8,1.9,1.9
			c1.8,0.3,3.7,0.4,5.6,0.3c8.3-0.3,16.7-0.6,25-1.1c1.1-0.1,2.2-1.6,3.3-2.4c-0.8-0.9-1.6-2.4-2.5-2.5c-4.2-0.3-8.5-0.1-12.7-0.1
			C1401,13.5,1401,13.2,1401,13"/>
		<path class="st0" d="M1216.5,18.3c-2.6,0-5.2-0.2-7.7,0.1c-0.9,0.1-2,1.6-2.2,2.7c-0.1,0.6,1.4,2.1,2.2,2.2
			c5.1,0.3,10.2,0.3,15.3,0.4c2.9,0.1,5.8,0,8.6,0.1c2.3,0.1,5.3,1.7,5.7-2c0.4-3.9-2.6-4-5.6-4c-5.5,0.1-10.9,0-16.4,0
			C1216.5,18.1,1216.5,18.2,1216.5,18.3"/>
		<path class="st0" d="M1323.4,21.7c1.2,0,2.4-1.3,3.6-2c-0.7-1.2-1.2-2.7-2.2-3.5c-1-0.7-2.6-1.1-3.9-0.9
			c-8.6,1.2-17.1,2.5-25.7,3.9c-0.7,0.1-1.1,1.3-1.7,2c0.9,0.5,1.9,1.4,2.8,1.3c6-0.4,11.9-1,17.4-1.5
			C1317.3,21.3,1320.3,21.7,1323.4,21.7"/>
		<path class="st0" d="M955.3,25.1c3.7-0.4,7.5,0.3,11.2,0c1.5-0.1,2.9-1.7,4.3-2.7c-1.3-1-2.7-2.8-4-2.7c-7.3,0.3-14.6,1.2-22,1.6
			c-5.4,0.3-4.7,3-3.2,6.3C946.7,26.6,951,25.5,955.3,25.1"/>
		<path class="st0" d="M1424.7,13.2c-0.9,0.1-1.5,1.8-2.2,2.7c0.9,0.6,1.8,1.6,2.9,1.8c1.8,0.3,3.7-0.2,5.5,0
			c6.2,0.7,12.4,1.8,18.7,2.3c1.3,0.1,2.8-1.6,4.2-2.5c-0.7-1-1.3-2.6-2.2-2.8c-5.5-1-11-1.7-15.7-2.4
			C1431.5,12.6,1428.1,12.6,1424.7,13.2"/>
		<path class="st0" d="M1477.7,20.7c3.4,0.5,6.7,1.2,10.1,1.4c1.7,0.1,3.4-0.6,5.1-1c-1.2-1.4-2.3-4-3.6-4.2
			c-8.3-1-16.6-1.5-24.9-1.9c-0.8,0-1.6,1.3-2.4,2.1c0.7,0.8,1.3,2.2,2.2,2.3c4.5,0.8,9,1.4,13.6,2
			C1477.6,21.1,1477.6,20.9,1477.7,20.7"/>
		<path class="st0" d="M1174.8,22.4c-2.2,0-4.5-0.4-6.6,0.1c-1.2,0.3-2,2.1-3,3.2c1.2,0.7,2.4,2,3.7,2c3.2,0.1,6.4-0.5,9.6-0.5
			c5.2,0,10.5,0.5,15.7,0.4c1.4,0,2.7-1.2,4.1-1.8c-1.2-0.8-2.3-2.3-3.6-2.4c-6.6-0.6-13.2-0.9-19.8-1.3
			C1174.8,22.1,1174.8,22.3,1174.8,22.4"/>
	</g>
</g>
</svg>
